<?xml version="1.0" encoding="iso-8859-1"?>
<!-- Generator: Adobe Illustrator 17.1.0, SVG Export Plug-In . SVG Version: 6.00 Build 0)  -->
<!DOCTYPE svg PUBLIC "-//W3C//DTD SVG 1.1//EN" "http://www.w3.org/Graphics/SVG/1.1/DTD/svg11.dtd">
<svg version="1.1" id="Capa_1" xmlns="http://www.w3.org/2000/svg" xmlns:xlink="http://www.w3.org/1999/xlink" x="0px" y="0px"
	 viewBox="0 0 511 511" style="enable-background:new 0 0 511 511;" xml:space="preserve">
<g>
	<path d="M471.5,40h-432C17.72,40,0,57.72,0,79.5v352C0,453.28,17.72,471,39.5,471h432c21.78,0,39.5-17.72,39.5-39.5v-352
		C511,57.72,493.28,40,471.5,40z M496,431.5c0,13.509-10.991,24.5-24.5,24.5h-432C25.991,456,15,445.009,15,431.5v-352
		C15,65.991,25.991,55,39.5,55h432c13.509,0,24.5,10.991,24.5,24.5V431.5z"/>
	<path d="M103.5,120C90.542,120,80,130.542,80,143.5S90.542,167,103.5,167s23.5-10.542,23.5-23.5S116.458,120,103.5,120z M103.5,152
		c-4.687,0-8.5-3.813-8.5-8.5s3.813-8.5,8.5-8.5s8.5,3.813,8.5,8.5S108.187,152,103.5,152z"/>
	<path d="M119.5,88h-64c-4.142,0-7.5,3.358-7.5,7.5v64c0,4.142,3.358,7.5,7.5,7.5s7.5-3.358,7.5-7.5V103h56.5
		c4.142,0,7.5-3.358,7.5-7.5S123.642,88,119.5,88z"/>
	<path d="M455.5,88h-64c-4.142,0-7.5,3.358-7.5,7.5s3.358,7.5,7.5,7.5H448v56.5c0,4.142,3.358,7.5,7.5,7.5s7.5-3.358,7.5-7.5v-64
		C463,91.358,459.642,88,455.5,88z"/>
	<path d="M119.5,408H63v-56.5c0-4.142-3.358-7.5-7.5-7.5s-7.5,3.358-7.5,7.5v64c0,4.142,3.358,7.5,7.5,7.5h64
		c4.142,0,7.5-3.358,7.5-7.5S123.642,408,119.5,408z"/>
	<path d="M455.5,344c-4.142,0-7.5,3.358-7.5,7.5V408h-56.5c-4.142,0-7.5,3.358-7.5,7.5s3.358,7.5,7.5,7.5h64
		c4.142,0,7.5-3.358,7.5-7.5v-64C463,347.358,459.642,344,455.5,344z"/>
	<path d="M151.5,135h80c4.142,0,7.5-3.358,7.5-7.5s-3.358-7.5-7.5-7.5h-80c-4.142,0-7.5,3.358-7.5,7.5S147.358,135,151.5,135z"/>
	<path d="M175.5,152h-24c-4.142,0-7.5,3.358-7.5,7.5s3.358,7.5,7.5,7.5h24c4.142,0,7.5-3.358,7.5-7.5S179.642,152,175.5,152z"/>
	<path d="M423.5,391c4.142,0,7.5-3.358,7.5-7.5s-3.358-7.5-7.5-7.5h-16c-4.142,0-7.5,3.358-7.5,7.5s3.358,7.5,7.5,7.5H423.5z"/>
	<path d="M375.5,376h-48c-4.142,0-7.5,3.358-7.5,7.5s3.358,7.5,7.5,7.5h48c4.142,0,7.5-3.358,7.5-7.5S379.642,376,375.5,376z"/>
	<path d="M295.5,248H263v-32.5c0-4.142-3.358-7.5-7.5-7.5s-7.5,3.358-7.5,7.5V248h-32.5c-4.142,0-7.5,3.358-7.5,7.5
		s3.358,7.5,7.5,7.5H248v32.5c0,4.142,3.358,7.5,7.5,7.5s7.5-3.358,7.5-7.5V263h32.5c4.142,0,7.5-3.358,7.5-7.5
		S299.642,248,295.5,248z"/>
</g>
<g>
</g>
<g>
</g>
<g>
</g>
<g>
</g>
<g>
</g>
<g>
</g>
<g>
</g>
<g>
</g>
<g>
</g>
<g>
</g>
<g>
</g>
<g>
</g>
<g>
</g>
<g>
</g>
<g>
</g>
</svg>
