<?xml version="1.0" encoding="iso-8859-1"?>
<!-- Generator: Adobe Illustrator 17.1.0, SVG Export Plug-In . SVG Version: 6.00 Build 0)  -->
<!DOCTYPE svg PUBLIC "-//W3C//DTD SVG 1.1//EN" "http://www.w3.org/Graphics/SVG/1.1/DTD/svg11.dtd">
<svg version="1.1" id="Capa_1" xmlns="http://www.w3.org/2000/svg" xmlns:xlink="http://www.w3.org/1999/xlink" x="0px" y="0px"
	 viewBox="0 0 511 511" style="enable-background:new 0 0 511 511;" xml:space="preserve">
<g>
	<path d="M455.5,0h-400C24.897,0,0,24.897,0,55.5v400C0,486.103,24.897,511,55.5,511h400c30.603,0,55.5-24.897,55.5-55.5v-400
		C511,24.897,486.103,0,455.5,0z M15,135h105v113H15V135z M135,135h113v113H135V135z M135,120V15h113v105H135z M55.5,15H120v105H15
		V55.5C15,33.168,33.168,15,55.5,15z M15,455.5V391h88.5c4.142,0,7.5-3.358,7.5-7.5s-3.358-7.5-7.5-7.5H15V263h105v96.5
		c0,4.142,3.358,7.5,7.5,7.5s7.5-3.358,7.5-7.5V263h113v64.5c0,4.142,3.358,7.5,7.5,7.5s7.5-3.358,7.5-7.5V263h72.5
		c4.142,0,7.5-3.358,7.5-7.5s-3.358-7.5-7.5-7.5H263V135h8.5c4.142,0,7.5-3.358,7.5-7.5s-3.358-7.5-7.5-7.5H263V15h112.999v0.5
		c0,4.142,3.358,7.5,7.5,7.5s7.5-3.358,7.5-7.5V15H455.5c22.332,0,40.5,18.168,40.5,40.5V120h-0.5c-4.142,0-7.5,3.358-7.5,7.5
		s3.358,7.5,7.5,7.5h0.5v113h-64.5c-4.142,0-7.5,3.358-7.5,7.5s3.358,7.5,7.5,7.5H496v113H390.999v-32.5c0-4.142-3.358-7.5-7.5-7.5
		s-7.5,3.358-7.5,7.5V376H279.5c-4.142,0-7.5,3.358-7.5,7.5s3.358,7.5,7.5,7.5h96.499v105h-113v-96.5c0-4.142-3.358-7.5-7.5-7.5
		s-7.5,3.358-7.5,7.5V496h-113v-64.5c0-4.142-3.358-7.5-7.5-7.5s-7.5,3.358-7.5,7.5V496H55.5C33.168,496,15,477.832,15,455.5z
		 M455.5,496h-64.501V391H496v64.5C496,477.832,477.832,496,455.5,496z"/>
	<path d="M379.251,261.68c1.28,0.88,2.765,1.32,4.249,1.32c1.505,0,3.01-0.452,4.301-1.356c0.848-0.593,20.989-14.797,41.359-38.223
		C456.532,191.943,471,158.774,471,127.5c0-48.248-39.252-87.5-87.5-87.5S296,79.252,296,127.5c0,31.69,14.473,64.995,41.854,96.312
		C358.24,247.128,378.403,261.097,379.251,261.68z M311,127.5c0-39.977,32.523-72.5,72.5-72.5S456,87.523,456,127.5
		c0,57.862-56.401,106.046-72.54,118.645C367.291,233.726,311,186.257,311,127.5z"/>
	<path d="M431,127.5c0-6.615-1.336-13.02-3.971-19.038c-1.661-3.794-6.084-5.525-9.878-3.862c-3.794,1.661-5.523,6.084-3.862,9.878
		c1.799,4.109,2.711,8.49,2.711,13.021c0,17.92-14.58,32.5-32.5,32.5S351,145.42,351,127.5S365.58,95,383.5,95
		c4.527,0,8.905,0.911,13.011,2.707c3.793,1.66,8.217-0.07,9.877-3.865s-0.07-8.217-3.865-9.877C396.51,81.334,390.109,80,383.5,80
		c-26.191,0-47.5,21.309-47.5,47.5s21.309,47.5,47.5,47.5S431,153.691,431,127.5z"/>
	<path d="M49.18,433.19c-1.74,0-3.44,0.61-4.78,1.72c-0.55,0.46-1.05,0.88-1.52,1.28c-0.04,0.03-0.07,0.06-0.11,0.1h-0.01
		c-4.91,4.22-9.22,8.65-12.81,13.15c-3.81,4.78-6.93,9.82-9.28,14.96c-0.16,0.34-0.29,0.7-0.4,1.06c-0.19,0.32-0.36,0.65-0.5,1
		c0,0-0.01,0-0.01,0.01c-1.58,3.82,0.23,8.22,4.05,9.8c0.92,0.38,1.89,0.58,2.88,0.58c3.04,0,5.76-1.82,6.93-4.63c0,0,0,0,0-0.01
		c0.11-0.26,0.21-0.53,0.28-0.81c0.15-0.25,0.29-0.5,0.41-0.77c3.64-7.97,9.77-15.7,18.23-22.96c0.52-0.45,0.99-0.85,1.43-1.21
		c3.18-2.64,3.62-7.37,0.99-10.56C53.53,434.18,51.42,433.19,49.18,433.19z"/>
	<path d="M141.7,403.95c0.79,0,1.57-0.12,2.32-0.37c0.01,0,0.01,0,0.01,0c0.32-0.1,0.63-0.23,0.93-0.37
		c0.32-0.06,0.64-0.14,0.96-0.24c9.27-3.01,19.55-6.15,31.41-9.61c0.6-0.18,1.2-0.35,1.8-0.53l0.12-0.03
		c3.97-1.16,6.26-5.33,5.11-9.3c-0.93-3.18-3.89-5.41-7.2-5.41c-0.71,0-1.41,0.1-2.1,0.3l-0.01,0.01c-0.52,0.15-1.03,0.3-1.54,0.45
		l-0.38,0.1c-11.98,3.5-22.39,6.69-31.83,9.75c-0.32,0.1-0.64,0.23-0.94,0.37c-0.33,0.06-0.66,0.15-0.98,0.25
		c-3.93,1.29-6.09,5.53-4.8,9.46C135.59,401.87,138.45,403.95,141.7,403.95z"/>
	<path d="M276.38,364.61c0.76,0,1.52-0.12,2.25-0.35h0.01c0.32-0.1,0.63-0.22,0.93-0.36c0.33-0.06,0.66-0.14,0.98-0.24
		c11.95-3.79,22.3-7.36,31.66-10.92c0.64-0.24,1.27-0.48,1.91-0.73c1.86-0.72,3.34-2.13,4.15-3.96s0.86-3.87,0.14-5.74
		c-1.11-2.87-3.92-4.8-7-4.8c-0.92,0-1.83,0.17-2.7,0.51l-0.23,0.09c-0.53,0.2-1.07,0.41-1.6,0.61
		c-9.08,3.45-19.17,6.93-30.86,10.64c-0.31,0.1-0.62,0.22-0.92,0.36c-0.33,0.05-0.65,0.13-0.97,0.23c-1.91,0.6-3.47,1.91-4.4,3.69
		c-0.93,1.77-1.11,3.8-0.5,5.72C270.21,362.5,273.09,364.61,276.38,364.61z"/>
	<path d="M208.98,384.08c0.68,0,1.36-0.09,2.02-0.28c0.32-0.09,0.64-0.2,0.95-0.33c0.33-0.05,0.66-0.12,0.98-0.21l3.22-0.89
		c9.4-2.62,19.11-5.32,28.51-8.01c0.05-0.01,0.11-0.02,0.16-0.04c0.64-0.18,1.29-0.37,1.93-0.55c1.93-0.55,3.52-1.82,4.49-3.57
		c0.98-1.75,1.21-3.78,0.66-5.71c-0.92-3.2-3.88-5.43-7.21-5.43c-0.7,0-1.39,0.09-2.07,0.29h-0.01l-0.79,0.23
		c-0.37,0.1-0.74,0.21-1.12,0.32c-9.02,2.57-18.38,5.18-27.43,7.7l-4.37,1.22c-0.32,0.09-0.64,0.2-0.94,0.33
		c-0.34,0.04-0.67,0.11-0.99,0.2c-0.01,0-0.01,0.01-0.01,0.01c-1.93,0.54-3.53,1.79-4.51,3.54c-0.98,1.74-1.23,3.76-0.69,5.69
		C202.66,381.82,205.63,384.08,208.98,384.08z"/>
	<path d="M341.56,339.01c1.22,0,2.44-0.3,3.52-0.88c0.31-0.16,0.6-0.34,0.88-0.55c0.33-0.12,0.65-0.27,0.95-0.43
		c12.06-6.6,21.35-13.37,28.39-20.68c0.55-0.58,1.05-1.11,1.51-1.63c2.78-3.07,2.54-7.82-0.53-10.59c-1.38-1.25-3.16-1.94-5.03-1.94
		c-2.11,0-4.14,0.9-5.56,2.47c-0.39,0.43-0.8,0.87-1.21,1.3c-5.87,6.12-14.2,12.14-24.76,17.9c-0.28,0.16-0.55,0.33-0.81,0.52
		c-0.3,0.11-0.6,0.24-0.88,0.39c-3.65,1.94-5.04,6.49-3.09,10.15C336.24,337.49,338.78,339.01,341.56,339.01z"/>
	<path d="M383.5,273c-4.13,0-7.49,3.36-7.5,7.49v0.01c0,4.14,3.36,7.5,7.5,7.5s7.5-3.36,7.5-7.5v-0.01
		C390.99,276.36,387.63,273,383.5,273z"/>
	<path d="M117.54,404.79c-1.13-2.91-3.88-4.78-6.99-4.78c-0.93,0-1.85,0.17-2.72,0.51c-0.64,0.25-1.27,0.5-1.9,0.74
		c-11.61,4.59-21.69,9.12-30.83,13.86c-0.31,0.16-0.6,0.34-0.88,0.54c-0.32,0.11-0.64,0.26-0.95,0.42
		c-3.65,1.93-5.05,6.48-3.12,10.14c1.31,2.46,3.85,3.99,6.64,3.99c1.21,0,2.42-0.3,3.5-0.88c0.29-0.15,0.57-0.32,0.83-0.51
		c0.3-0.11,0.6-0.24,0.89-0.39c8.54-4.43,18.44-8.88,29.43-13.22l0.5-0.19c0.45-0.18,0.89-0.35,1.33-0.52
		C117.12,413,119.04,408.64,117.54,404.79z"/>
</g>
<g>
</g>
<g>
</g>
<g>
</g>
<g>
</g>
<g>
</g>
<g>
</g>
<g>
</g>
<g>
</g>
<g>
</g>
<g>
</g>
<g>
</g>
<g>
</g>
<g>
</g>
<g>
</g>
<g>
</g>
</svg>
