<?xml version="1.0" encoding="iso-8859-1"?>
<!-- Generator: Adobe Illustrator 17.1.0, SVG Export Plug-In . SVG Version: 6.00 Build 0)  -->
<!DOCTYPE svg PUBLIC "-//W3C//DTD SVG 1.1//EN" "http://www.w3.org/Graphics/SVG/1.1/DTD/svg11.dtd">
<svg version="1.1" id="Capa_1" xmlns="http://www.w3.org/2000/svg" xmlns:xlink="http://www.w3.org/1999/xlink" x="0px" y="0px"
	 viewBox="0 0 511 511" style="enable-background:new 0 0 511 511;" xml:space="preserve">
<g>
	<path d="M436.166,74.834C387.908,26.577,323.747,0,255.5,0S123.092,26.577,74.834,74.834C26.577,123.092,0,187.253,0,255.5
		s26.577,132.408,74.834,180.666C123.092,484.423,187.253,511,255.5,511s132.408-26.577,180.666-74.834
		C484.423,387.908,511,323.747,511,255.5S484.423,123.092,436.166,74.834z M425.559,425.559C380.135,470.984,319.74,496,255.5,496
		s-124.635-25.016-170.059-70.441C40.016,380.135,15,319.74,15,255.5S40.016,130.865,85.441,85.441
		C130.865,40.016,191.26,15,255.5,15s124.635,25.016,170.059,70.441C470.984,130.865,496,191.26,496,255.5
		S470.984,380.135,425.559,425.559z"/>
	<path d="M415.276,104.461c-6.267-4.941-14.912-4.431-20.556,1.212L278.551,221.842c-0.051,0.049-0.101,0.1-0.151,0.15l-6.573,6.573
		c-9.998-6.06-22.658-6.06-32.655,0l-3.815-3.815l8.337-41.687c1.923-9.617-2.403-19.521-10.764-24.645L124.733,92.104
		c-6.804-4.17-15.33-2.648-20.271,3.619s-4.432,14.913,1.212,20.556L221.84,232.446c0.051,0.052,0.103,0.104,0.155,0.156l6.571,6.57
		c-6.06,9.997-6.06,22.658,0,32.655l-3.815,3.815l-41.687-8.337c-9.619-1.923-19.521,2.403-24.645,10.764L92.104,386.267
		c-4.17,6.805-2.648,15.33,3.619,20.271c2.879,2.27,6.26,3.39,9.622,3.39c3.955,0,7.884-1.551,10.935-4.602l116.169-116.169
		c0.051-0.049,0.101-0.1,0.151-0.15l6.573-6.573c4.999,3.03,10.662,4.551,16.328,4.551s11.329-1.521,16.328-4.551l3.815,3.815
		l-8.337,41.687c-1.923,9.617,2.403,19.521,10.764,24.645l108.198,66.315c2.574,1.578,5.393,2.34,8.172,2.34
		c4.568,0,9.027-2.063,12.099-5.959c4.941-6.268,4.432-14.913-1.212-20.556L289.16,278.554c-0.051-0.052-0.103-0.104-0.155-0.156
		l-6.571-6.57c6.06-9.997,6.06-22.658,0-32.655l3.815-3.815l41.687,8.337c9.619,1.921,19.521-2.403,24.645-10.764l66.315-108.198
		C423.066,117.928,421.544,109.403,415.276,104.461z M105.673,394.72c-0.163,0.163-0.274,0.227-0.263,0.231
		c-0.214-0.003-0.627-0.329-0.677-0.495c0.004-0.031,0.04-0.154,0.161-0.351l66.315-108.198c1.56-2.545,4.345-4.057,7.262-4.057
		c0.548,0,1.102,0.053,1.652,0.164l31.881,6.376L105.673,394.72z M116.28,105.673c-0.156-0.156-0.221-0.264-0.23-0.264
		c0,0,0,0-0.001,0.001c0.003-0.214,0.329-0.627,0.495-0.677c0.031,0.004,0.154,0.04,0.351,0.161l108.198,66.315
		c3.024,1.854,4.589,5.436,3.893,8.914l-6.376,31.881L116.28,105.673z M243.833,267.167c-6.433-6.434-6.433-16.901,0-23.335
		c3.217-3.217,7.442-4.825,11.667-4.825s8.451,1.608,11.667,4.825c6.433,6.434,6.433,16.901,0,23.335
		C260.734,273.601,250.266,273.601,243.833,267.167z M394.72,405.327c0.165,0.164,0.222,0.281,0.231,0.263
		c-0.003,0.214-0.329,0.627-0.495,0.677c-0.031-0.004-0.154-0.04-0.351-0.161l-108.198-66.315c-3.024-1.854-4.589-5.436-3.893-8.914
		l6.376-31.881L394.72,405.327z M406.106,116.895l-66.315,108.198c-1.854,3.024-5.433,4.588-8.914,3.893l-31.881-6.376
		l106.33-106.33c0.163-0.163,0.274-0.227,0.263-0.231c0.214,0.003,0.627,0.329,0.677,0.495
		C406.263,116.575,406.227,116.698,406.106,116.895z"/>
	<path d="M255.5,248c-1.97,0-3.91,0.8-5.3,2.2c-1.4,1.39-2.2,3.33-2.2,5.3c0,1.97,0.8,3.91,2.2,5.3c1.39,1.4,3.33,2.2,5.3,2.2
		c1.97,0,3.91-0.8,5.3-2.2c1.4-1.39,2.2-3.33,2.2-5.3c0-1.97-0.8-3.91-2.2-5.3C259.41,248.8,257.47,248,255.5,248z"/>
</g>
<g>
</g>
<g>
</g>
<g>
</g>
<g>
</g>
<g>
</g>
<g>
</g>
<g>
</g>
<g>
</g>
<g>
</g>
<g>
</g>
<g>
</g>
<g>
</g>
<g>
</g>
<g>
</g>
<g>
</g>
</svg>
