<?xml version="1.0" encoding="iso-8859-1"?>
<!-- Generator: Adobe Illustrator 21.0.0, SVG Export Plug-In . SVG Version: 6.00 Build 0)  -->
<svg xmlns="http://www.w3.org/2000/svg" xmlns:xlink="http://www.w3.org/1999/xlink" version="1.1" id="Capa_1" x="0px" y="0px" viewBox="0 0 511.961 511.961" style="enable-background:new 0 0 511.961 511.961;" xml:space="preserve" width="512" height="512">
<g>
	<path d="M508.097,10.741c-0.147-1.74-0.899-3.419-2.207-4.709l-0.072-0.071c-1.281-1.263-2.929-1.989-4.633-2.134   c-44.501-9.166-92.755-1.792-139.62,21.348c-35.479,17.519-57.5,37.637-58.42,38.485c-0.036,0.033-0.066,0.07-0.101,0.103   c-0.038,0.036-0.078,0.067-0.115,0.104L180.25,186.332l-28.22-28.218c-0.001-0.001-0.002-0.001-0.002-0.002   s-0.001-0.002-0.002-0.002c-14.768-14.742-38.774-14.759-53.518-0.038l-23.03,23.024c-2.929,2.929-2.93,7.677-0.001,10.607   c1.465,1.465,3.384,2.197,5.304,2.197c1.919,0,3.838-0.732,5.303-2.196l23.027-23.021c8.897-8.884,23.395-8.865,32.318,0.043l0,0   l28.206,28.203l-65.965,65.851l-15.992-15.992c-2.368-2.368-6.018-2.879-8.945-1.253L31.444,271.8l-12.726-12.727l44.741-44.739   c2.929-2.929,2.929-7.677,0-10.606c-2.928-2.929-7.677-2.929-10.606,0L2.809,253.769c-2.929,2.929-2.929,7.677,0,10.606   l22.028,22.031c2.336,2.336,6.054,2.86,8.945,1.253l47.289-26.265l31.563,31.56c-10.776,5.219-15.223,18.586-9.998,29.315   c2.654,5.449,7.896,9.622,12.122,13.847c-19.631-2.128-40.031,4.215-55.17,19.091c-2.931,2.879-2.954,7.745-0.047,10.653   l85.596,85.598c2.872,2.872,7.663,2.895,10.561,0.045c12.772-12.554,19.882-29.266,20.02-47.056   c0.02-2.596-0.125-5.191-0.401-7.772c4.636,4.636,9.107,10.24,15.382,12.64c10.448,3.997,22.716-0.586,27.665-10.656l31.562,31.586   l-25.524,48.234c-1.54,2.91-1.002,6.483,1.326,8.811l22.097,22.097c1.464,1.465,3.384,2.197,5.303,2.197   c1.919,0,3.839-0.732,5.303-2.196l95.906-95.9c14.564-14.536,14.567-38.813,0.005-53.353l-29.109-29.112l122.546-122.338   c0.037-0.037,0.068-0.077,0.104-0.115c0.032-0.033,0.067-0.062,0.099-0.096c0.851-0.918,21.047-22.905,38.639-58.329   C509.86,103.354,517.278,55.174,508.097,10.741z M286.519,247.946c-14.177-6.492-23.529-18.134-26.724-34.053   c-3.141-15.651,1.904-32.171,13.192-43.434c9.395-9.378,21.733-14.068,34.073-14.068c12.34,0,24.681,4.69,34.075,14.07   c9.102,9.081,14.115,21.154,14.114,33.995c0,12.84-5.013,24.911-14.114,33.991C326.934,252.648,303.979,255.942,286.519,247.946z    M262.388,249.065c2.542,2.538,5.256,4.798,8.094,6.812l-86.817,86.821l-14.154-14.153l86.667-86.673   C258.049,244.398,260.121,246.803,262.388,249.065z M160.717,404.332c-0.087,11.29-3.807,22.026-10.6,30.895l-74.24-74.242   c20.342-14.963,48.982-13.572,67.767,4.02C154.245,375.605,160.835,389.131,160.717,404.332z M205.626,388.871   c0,6.269-7.753,9.135-12.093,4.81l-75.974-75.974c-6.247-6.236,2.54-15.925,9.381-10.448l77.065,77.048   C205.055,385.596,205.626,387.19,205.626,388.871z M343.739,370.748c8.773,8.759,8.77,23.373-0.004,32.13l-90.608,90.602   l-12.877-12.878l25.524-48.233c1.54-2.909,1.002-6.482-1.325-8.81l-15.937-15.943l66.106-65.993L343.739,370.748z M473.386,143.073   c-11.505,23.265-24.431,40.671-31.365,49.253l-18.601-18.564c-6.842-6.83-17.453,3.774-10.596,10.617l19.039,19.001   L237.916,396.999l-23.249-23.244c-0.189-0.204-0.362-0.419-0.56-0.617l-19.836-19.833l90.022-90.025   c21.829,8.385,47.182,3.896,64.69-11.628c16.688-14.797,24.401-37.718,20.052-59.6c-2.42-12.177-8.521-23.443-17.304-32.206   c-15.079-15.055-37.253-21.496-58.068-17.019c-22.109,4.755-40.501,21.58-47.08,43.248c-4.182,13.773-3.498,28.903,1.95,42.229   l-89.63,89.637l-20.769-20.767c-0.216-0.216-0.451-0.402-0.674-0.607l-23.183-23.178l193.946-193.61l80.745,80.744   c6.836,6.836,17.457-3.757,10.606-10.606L319.31,69.65c20.612-16.501,91.816-66.978,174.868-51.904   C503.298,67.914,488.067,113.386,473.386,143.073z"/>
	<path d="M7.479,462.131c1.917,0,3.835-0.731,5.3-2.193l55.406-55.33c6.84-6.832-3.744-17.459-10.6-10.614L2.18,449.324   C-2.442,453.94,0.925,462.131,7.479,462.131z"/>
	<path d="M93.136,418.905c-2.927-2.931-7.676-2.935-10.606-0.007L2.671,498.651c-6.821,6.812,3.732,17.474,10.6,10.613   l79.858-79.753C96.059,426.584,96.063,421.835,93.136,418.905z"/>
	<path d="M107.476,443.799l-55.398,55.336c-6.82,6.812,3.733,17.473,10.601,10.612l55.398-55.336   C124.916,447.58,114.329,436.952,107.476,443.799z"/>
</g>















</svg>
